<?xml version="1.0" encoding="UTF-8" standalone="no"?>
<svg
   width="144"
   height="144"
   viewBox="0 0 144 144"
   fill="none"
   version="1.1"
   id="svg1293"
   sodipodi:docname="woman.svg"
   inkscape:version="1.1 (c68e22c387, 2021-05-23)"
   xmlns:inkscape="http://www.inkscape.org/namespaces/inkscape"
   xmlns:sodipodi="http://sodipodi.sourceforge.net/DTD/sodipodi-0.dtd"
   xmlns="http://www.w3.org/2000/svg"
   xmlns:svg="http://www.w3.org/2000/svg">
  <sodipodi:namedview
     id="namedview1295"
     pagecolor="#505050"
     bordercolor="#ffffff"
     borderopacity="1"
     inkscape:pageshadow="0"
     inkscape:pageopacity="0"
     inkscape:pagecheckerboard="1"
     showgrid="false"
     inkscape:zoom="5.7777778"
     inkscape:cx="72.173077"
     inkscape:cy="72.086538"
     inkscape:window-width="1920"
     inkscape:window-height="1017"
     inkscape:window-x="1912"
     inkscape:window-y="-8"
     inkscape:window-maximized="1"
     inkscape:current-layer="svg1293" />
  <mask
     id="mask0"
     mask-type="alpha"
     maskUnits="userSpaceOnUse"
     x="4"
     y="4"
     width="137"
     height="137">
    <path
       fill-rule="evenodd"
       clip-rule="evenodd"
       d="M72.5 140C109.779 140 140 109.779 140 72.5C140 35.2208 109.779 5 72.5 5C35.2208 5 5 35.2208 5 72.5C5 109.779 35.2208 140 72.5 140Z"
       fill="white"
       stroke="#4A4A4A"
       id="path1223" />
  </mask>
  <g
     mask="url(#mask0)"
     id="g1264"
     transform="translate(0,4)">
    <path
       d="M 104.512,67.8 H 40.4877 c 0,0 -10.6708,44.7 0.9972,49.6 6.9809,3 12.7651,-0.9 31.0151,-0.9 18.25,0 24.0341,3.8 31.015,0.9 11.768,-4.9 0.997,-49.6 0.997,-49.6 z"
       fill="#3d2011"
       id="path1226" />
    <path
       d="M 83.2726,101.7 C 77.289,98.5999 78.386,94.2 78.386,94.2 H 66.6183 c 0,0 1.097,4.3999 -4.8866,7.5 -7.679,4 -15.8566,4.6 -12.4659,42.8 21.3415,0 25.1312,0 46.4727,0 3.3907,-38.2 -4.7869,-38.8 -12.4659,-42.8 z"
       fill="#fcd7b8"
       stroke="#000000"
       stroke-width="1.0195"
       stroke-miterlimit="10"
       id="path1228" />
    <path
       d="m 72.5022,11.7001 c -1.9946,-0.1 -29.4194,-0.6 -29.4194,33.1 0,40.9 4.2882,50.4 29.4194,50.4 25.1311,0 29.4198,-9.5 29.4198,-50.4 0,-33.7 -27.3256,-33.2 -29.4198,-33.1 z"
       fill="#fcd7b8"
       stroke="#000000"
       stroke-width="1.0195"
       stroke-miterlimit="10"
       id="path1230" />
    <path
       d="m 86.5632,55.7001 c 0.6981,-0.8 2.4932,-2.9 5.6845,0.5"
       stroke="#000000"
       stroke-width="1.0195"
       stroke-miterlimit="10"
       stroke-linecap="round"
       stroke-linejoin="round"
       id="path1232" />
    <path
       d="m 58.4391,55.7001 c -0.6981,-0.8 -2.4932,-2.9 -5.6845,0.5"
       stroke="#000000"
       stroke-width="1.0195"
       stroke-miterlimit="10"
       stroke-linecap="round"
       stroke-linejoin="round"
       id="path1234" />
    <path
       d="m 68.0125,78.1001 h 8.8756"
       stroke="#000000"
       stroke-width="1.0195"
       stroke-miterlimit="10"
       stroke-linecap="round"
       stroke-linejoin="round"
       id="path1236" />
    <path
       d="m 89.655,60.7 c -0.9973,0 -1.7951,0.7999 -2.2937,1.3999 -0.1995,0.3 -0.1995,0.6 0,0.9 0.3989,0.5 1.2964,1.4 2.2937,1.4 1.3962,0 2.5929,-1.8 2.5929,-1.8 0,0 -1.1967,-1.8999 -2.5929,-1.8999 z"
       fill="#61584f"
       stroke="#000000"
       stroke-width="0.5"
       stroke-miterlimit="10"
       stroke-linecap="round"
       stroke-linejoin="round"
       id="path1238" />
    <path
       d="m 89.7551,64.2999 c 0.771,0 1.3961,-0.8058 1.3961,-1.8 0,-0.9941 -0.6251,-1.7999 -1.3961,-1.7999 -0.7711,0 -1.3962,0.8058 -1.3962,1.7999 0,0.9942 0.6251,1.8 1.3962,1.8 z"
       fill="#000000"
       id="path1240" />
    <path
       d="m 88.8576,62.5 c 0.3305,0 0.5984,-0.2686 0.5984,-0.6 0,-0.3313 -0.2679,-0.6 -0.5984,-0.6 -0.3304,0 -0.5983,0.2687 -0.5983,0.6 0,0.3314 0.2679,0.6 0.5983,0.6 z"
       fill="#dddfe2"
       id="path1242" />
    <path
       d="m 55.2479,60.7 c 0.9973,0 1.7951,0.7999 2.2937,1.3999 0.1995,0.3 0.1995,0.6 0,0.9 -0.3989,0.5 -1.2964,1.4 -2.2937,1.4 -1.3962,0 -2.5929,-1.8 -2.5929,-1.8 0,0 1.1967,-1.8999 2.5929,-1.8999 z"
       fill="#61584f"
       stroke="#000000"
       stroke-width="0.5"
       stroke-miterlimit="10"
       stroke-linecap="round"
       stroke-linejoin="round"
       id="path1244" />
    <path
       d="m 55.1486,64.2999 c 0.7711,0 1.3962,-0.8058 1.3962,-1.8 0,-0.9941 -0.6251,-1.7999 -1.3962,-1.7999 -0.7711,0 -1.3962,0.8058 -1.3962,1.7999 0,0.9942 0.6251,1.8 1.3962,1.8 z"
       fill="#000000"
       id="path1246" />
    <path
       d="m 56.146,62.5 c 0.3304,0 0.5983,-0.2686 0.5983,-0.6 0,-0.3313 -0.2679,-0.6 -0.5983,-0.6 -0.3305,0 -0.5984,0.2687 -0.5984,0.6 0,0.3314 0.2679,0.6 0.5984,0.6 z"
       fill="#dddfe2"
       id="path1248" />
    <path
       d="m 71.903,10.5001 c -31.8129,-5.20001 -34.4057,41.3 -31.9126,49.7 1.2965,3.7 0.4987,7.6 0.4987,7.6 h 2.9918 c 0,0 -0.1995,-2.4 0.1994,-3.9 0.9973,-3.8 3.4904,-9.8 9.0751,-19.4 11.9673,-20.4 19.5465,-22.3 18.9481,-24.6 -0.6981,-2.2 0.8976,-7.2 0.8976,-7.2 1.097,1.8 -0.4987,6.1 1.7951,8.6 22.8374,25 26.9258,42.8 27.0258,43.2 0.1,0.5 0.299,3.2 0.299,3.2 h 2.992 c 0,0 1.396,-5.3 1.297,-8.9 1.595,-57.20001 -34.107,-48.3 -34.107,-48.3 z"
       fill="#3d2011"
       id="path1250" />
    <path
       d="m 83.2709,101.7 c -0.0997,0 -0.0997,-0.1 -0.1994,-0.1 -1.7951,3.5 -5.8839,6 -10.6708,6 -4.7869,0 -8.8757,-2.5 -10.6708,-6 -0.0997,0 -0.0997,0.1 -0.1994,0.1 -7.679,4 -15.8566,4.6 -12.4659,42.8 21.3416,0 25.1312,0 46.4727,0 3.5902,-38.2 -4.5874,-38.8 -12.2664,-42.8 z"
       fill="#b2c7c7"
       stroke="#000000"
       stroke-width="1.0195"
       stroke-miterlimit="10"
       id="path1252" />
    <path
       d="m 88.2578,117.4 c -0.3989,5 -0.8976,12.5 -0.9973,27.1"
       stroke="#000000"
       stroke-width="1.0195"
       stroke-miterlimit="10"
       stroke-linecap="round"
       stroke-linejoin="round"
       id="path1254" />
    <path
       d="m 56.7449,117.4 c 0.3989,5 0.8975,12.5 0.9972,27.1"
       stroke="#000000"
       stroke-width="1.0195"
       stroke-miterlimit="10"
       stroke-linecap="round"
       stroke-linejoin="round"
       id="path1256" />
    <path
       d="m 71.7028,61.3999 c -0.2992,2.9 -2.0943,6.6 0,7 2.0943,0.4 4.1885,0 4.1885,0"
       stroke="#000000"
       stroke-width="1.0195"
       stroke-miterlimit="10"
       stroke-linecap="round"
       stroke-linejoin="round"
       id="path1258" />
    <path
       d="m 108.303,63.9999 c -0.2,-2.3 -1.297,-5 -3.69,-5.7 -1.296,-0.4 -2.094,0.3 -3.092,0.7 -0.199,4.5 -0.498,8.5 -0.997,12 4.189,-0.1 8.278,-1.9 7.779,-7 z"
       fill="#fcd7b8"
       stroke="#000000"
       stroke-width="1.0195"
       stroke-miterlimit="10"
       id="path1260" />
    <path
       d="M 43.2805,59.1 C 42.3829,58.6 41.5851,58 40.189,58.4 37.8952,59 36.7982,61.7 36.5988,64 c -0.4986,5.1 3.5902,6.9 7.679,7 -0.4987,-3.4 -0.7979,-7.4 -0.9973,-11.9 z"
       fill="#fcd7b8"
       stroke="#000000"
       stroke-width="1.0195"
       stroke-miterlimit="10"
       id="path1262" />
  </g>
  <defs
     id="defs1291">
    <filter
       id="filter0_dd"
       x="0"
       y="0"
       width="144"
       height="144"
       filterUnits="userSpaceOnUse"
       color-interpolation-filters="sRGB">
      <feFlood
         flood-opacity="0"
         result="BackgroundImageFix"
         id="feFlood1266" />
      <feColorMatrix
         in="SourceAlpha"
         type="matrix"
         values="0 0 0 0 0 0 0 0 0 0 0 0 0 0 0 0 0 0 127 0"
         id="feColorMatrix1268" />
      <feOffset
         dx="1"
         dy="1"
         id="feOffset1270" />
      <feGaussianBlur
         stdDeviation="1.5"
         id="feGaussianBlur1272" />
      <feColorMatrix
         type="matrix"
         values="0 0 0 0 0.368627 0 0 0 0 0.407843 0 0 0 0 0.47451 0 0 0 0.945 0"
         id="feColorMatrix1274" />
      <feBlend
         mode="normal"
         in2="BackgroundImageFix"
         result="effect1_dropShadow"
         id="feBlend1276" />
      <feColorMatrix
         in="SourceAlpha"
         type="matrix"
         values="0 0 0 0 0 0 0 0 0 0 0 0 0 0 0 0 0 0 127 0"
         id="feColorMatrix1278" />
      <feOffset
         dx="-1"
         dy="-1"
         id="feOffset1280" />
      <feGaussianBlur
         stdDeviation="2"
         id="feGaussianBlur1282" />
      <feColorMatrix
         type="matrix"
         values="0 0 0 0 1 0 0 0 0 1 0 0 0 0 1 0 0 0 1 0"
         id="feColorMatrix1284" />
      <feBlend
         mode="normal"
         in2="effect1_dropShadow"
         result="effect2_dropShadow"
         id="feBlend1286" />
      <feBlend
         mode="normal"
         in="SourceGraphic"
         in2="effect2_dropShadow"
         result="shape"
         id="feBlend1288" />
    </filter>
  </defs>
</svg>
